<?xml version="1.0" encoding="UTF-8" ?>
<svg version="1.1" width="8" height="20" xmlns="http://www.w3.org/2000/svg" shape-rendering="crispEdges">
<rect x="0" y="0" width="1" height="1" fill="#000000" />
<rect x="1" y="0" width="1" height="1" fill="#000000" />
<rect x="2" y="0" width="1" height="1" fill="#000000" />
<rect x="3" y="0" width="1" height="1" fill="#000000" />
<rect x="4" y="0" width="1" height="1" fill="#000000" />
<rect x="5" y="0" width="1" height="1" fill="#000000" />
<rect x="6" y="0" width="1" height="1" fill="#000000" />
<rect x="7" y="0" width="1" height="1" fill="#000000" />
<rect x="0" y="1" width="1" height="1" fill="#000000" />
<rect x="1" y="1" width="1" height="1" fill="#AAAAAA" />
<rect x="2" y="1" width="1" height="1" fill="#AAAAAA" />
<rect x="3" y="1" width="1" height="1" fill="#AAAAAA" />
<rect x="4" y="1" width="1" height="1" fill="#AAAAAA" />
<rect x="5" y="1" width="1" height="1" fill="#AAAAAA" />
<rect x="6" y="1" width="1" height="1" fill="#6F6F6F" />
<rect x="7" y="1" width="1" height="1" fill="#000000" />
<rect x="0" y="2" width="1" height="1" fill="#000000" />
<rect x="1" y="2" width="1" height="1" fill="#AAAAAA" />
<rect x="2" y="2" width="1" height="1" fill="#6F6F6F" />
<rect x="3" y="2" width="1" height="1" fill="#6F6F6F" />
<rect x="4" y="2" width="1" height="1" fill="#6C6C6C" />
<rect x="5" y="2" width="1" height="1" fill="#686868" />
<rect x="6" y="2" width="1" height="1" fill="#525252" />
<rect x="7" y="2" width="1" height="1" fill="#000000" />
<rect x="0" y="3" width="1" height="1" fill="#000000" />
<rect x="1" y="3" width="1" height="1" fill="#AAAAAA" />
<rect x="2" y="3" width="1" height="1" fill="#6E6E6E" />
<rect x="3" y="3" width="1" height="1" fill="#6B6B6B" />
<rect x="4" y="3" width="1" height="1" fill="#6F6F6F" />
<rect x="5" y="3" width="1" height="1" fill="#6C6C6C" />
<rect x="6" y="3" width="1" height="1" fill="#555555" />
<rect x="7" y="3" width="1" height="1" fill="#000000" />
<rect x="0" y="4" width="1" height="1" fill="#000000" />
<rect x="1" y="4" width="1" height="1" fill="#A8A8A8" />
<rect x="2" y="4" width="1" height="1" fill="#6F6F6F" />
<rect x="3" y="4" width="1" height="1" fill="#707070" />
<rect x="4" y="4" width="1" height="1" fill="#6D6D6D" />
<rect x="5" y="4" width="1" height="1" fill="#696969" />
<rect x="6" y="4" width="1" height="1" fill="#545454" />
<rect x="7" y="4" width="1" height="1" fill="#000000" />
<rect x="0" y="5" width="1" height="1" fill="#000000" />
<rect x="1" y="5" width="1" height="1" fill="#AAAAAA" />
<rect x="2" y="5" width="1" height="1" fill="#6F6F6F" />
<rect x="3" y="5" width="1" height="1" fill="#707070" />
<rect x="4" y="5" width="1" height="1" fill="#6D6D6D" />
<rect x="5" y="5" width="1" height="1" fill="#6E6E6E" />
<rect x="6" y="5" width="1" height="1" fill="#595959" />
<rect x="7" y="5" width="1" height="1" fill="#000000" />
<rect x="0" y="6" width="1" height="1" fill="#000000" />
<rect x="1" y="6" width="1" height="1" fill="#A6A6A6" />
<rect x="2" y="6" width="1" height="1" fill="#6E6E6E" />
<rect x="3" y="6" width="1" height="1" fill="#6F6F6F" />
<rect x="4" y="6" width="1" height="1" fill="#6E6E6E" />
<rect x="5" y="6" width="1" height="1" fill="#6D6D6D" />
<rect x="6" y="6" width="1" height="1" fill="#565656" />
<rect x="7" y="6" width="1" height="1" fill="#000000" />
<rect x="0" y="7" width="1" height="1" fill="#000000" />
<rect x="1" y="7" width="1" height="1" fill="#AAAAAA" />
<rect x="2" y="7" width="1" height="1" fill="#6E6E6E" />
<rect x="3" y="7" width="1" height="1" fill="#6C6C6C" />
<rect x="4" y="7" width="1" height="1" fill="#6D6D6D" />
<rect x="5" y="7" width="1" height="1" fill="#6F6F6F" />
<rect x="6" y="7" width="1" height="1" fill="#565656" />
<rect x="7" y="7" width="1" height="1" fill="#000000" />
<rect x="0" y="8" width="1" height="1" fill="#000000" />
<rect x="1" y="8" width="1" height="1" fill="#AAAAAA" />
<rect x="2" y="8" width="1" height="1" fill="#6C6C6C" />
<rect x="3" y="8" width="1" height="1" fill="#6E6E6E" />
<rect x="4" y="8" width="1" height="1" fill="#6D6D6D" />
<rect x="5" y="8" width="1" height="1" fill="#6F6F6F" />
<rect x="6" y="8" width="1" height="1" fill="#565656" />
<rect x="7" y="8" width="1" height="1" fill="#000000" />
<rect x="0" y="9" width="1" height="1" fill="#000000" />
<rect x="1" y="9" width="1" height="1" fill="#ABABAB" />
<rect x="2" y="9" width="1" height="1" fill="#6F6F6F" />
<rect x="3" y="9" width="1" height="1" fill="#6F6F6F" />
<rect x="4" y="9" width="1" height="1" fill="#6F6F6F" />
<rect x="5" y="9" width="1" height="1" fill="#696969" />
<rect x="6" y="9" width="1" height="1" fill="#4F4F4F" />
<rect x="7" y="9" width="1" height="1" fill="#000000" />
<rect x="0" y="10" width="1" height="1" fill="#000000" />
<rect x="1" y="10" width="1" height="1" fill="#AAAAAA" />
<rect x="2" y="10" width="1" height="1" fill="#6E6E6E" />
<rect x="3" y="10" width="1" height="1" fill="#707070" />
<rect x="4" y="10" width="1" height="1" fill="#6D6D6D" />
<rect x="5" y="10" width="1" height="1" fill="#6C6C6C" />
<rect x="6" y="10" width="1" height="1" fill="#565656" />
<rect x="7" y="10" width="1" height="1" fill="#000000" />
<rect x="0" y="11" width="1" height="1" fill="#000000" />
<rect x="1" y="11" width="1" height="1" fill="#AAAAAA" />
<rect x="2" y="11" width="1" height="1" fill="#6F6F6F" />
<rect x="3" y="11" width="1" height="1" fill="#6F6F6F" />
<rect x="4" y="11" width="1" height="1" fill="#707070" />
<rect x="5" y="11" width="1" height="1" fill="#747474" />
<rect x="6" y="11" width="1" height="1" fill="#585858" />
<rect x="7" y="11" width="1" height="1" fill="#000000" />
<rect x="0" y="12" width="1" height="1" fill="#000000" />
<rect x="1" y="12" width="1" height="1" fill="#AAAAAA" />
<rect x="2" y="12" width="1" height="1" fill="#6F6F6F" />
<rect x="3" y="12" width="1" height="1" fill="#6F6F6F" />
<rect x="4" y="12" width="1" height="1" fill="#6F6F6F" />
<rect x="5" y="12" width="1" height="1" fill="#6D6D6D" />
<rect x="6" y="12" width="1" height="1" fill="#4F4F4F" />
<rect x="7" y="12" width="1" height="1" fill="#000000" />
<rect x="0" y="13" width="1" height="1" fill="#000000" />
<rect x="1" y="13" width="1" height="1" fill="#AAAAAA" />
<rect x="2" y="13" width="1" height="1" fill="#717171" />
<rect x="3" y="13" width="1" height="1" fill="#6F6F6F" />
<rect x="4" y="13" width="1" height="1" fill="#696969" />
<rect x="5" y="13" width="1" height="1" fill="#6E6E6E" />
<rect x="6" y="13" width="1" height="1" fill="#565656" />
<rect x="7" y="13" width="1" height="1" fill="#000000" />
<rect x="0" y="14" width="1" height="1" fill="#000000" />
<rect x="1" y="14" width="1" height="1" fill="#AAAAAA" />
<rect x="2" y="14" width="1" height="1" fill="#737373" />
<rect x="3" y="14" width="1" height="1" fill="#757575" />
<rect x="4" y="14" width="1" height="1" fill="#717171" />
<rect x="5" y="14" width="1" height="1" fill="#717171" />
<rect x="6" y="14" width="1" height="1" fill="#565656" />
<rect x="7" y="14" width="1" height="1" fill="#000000" />
<rect x="0" y="15" width="1" height="1" fill="#000000" />
<rect x="1" y="15" width="1" height="1" fill="#AAAAAA" />
<rect x="2" y="15" width="1" height="1" fill="#6F6F6F" />
<rect x="3" y="15" width="1" height="1" fill="#6F6F6F" />
<rect x="4" y="15" width="1" height="1" fill="#707070" />
<rect x="5" y="15" width="1" height="1" fill="#747474" />
<rect x="6" y="15" width="1" height="1" fill="#575757" />
<rect x="7" y="15" width="1" height="1" fill="#000000" />
<rect x="0" y="16" width="1" height="1" fill="#000000" />
<rect x="1" y="16" width="1" height="1" fill="#A8A8A8" />
<rect x="2" y="16" width="1" height="1" fill="#6F6F6F" />
<rect x="3" y="16" width="1" height="1" fill="#6D6D6D" />
<rect x="4" y="16" width="1" height="1" fill="#757575" />
<rect x="5" y="16" width="1" height="1" fill="#717171" />
<rect x="6" y="16" width="1" height="1" fill="#595959" />
<rect x="7" y="16" width="1" height="1" fill="#000000" />
<rect x="0" y="17" width="1" height="1" fill="#000000" />
<rect x="1" y="17" width="1" height="1" fill="#737373" />
<rect x="2" y="17" width="1" height="1" fill="#565656" />
<rect x="3" y="17" width="1" height="1" fill="#565656" />
<rect x="4" y="17" width="1" height="1" fill="#565656" />
<rect x="5" y="17" width="1" height="1" fill="#565656" />
<rect x="6" y="17" width="1" height="1" fill="#565656" />
<rect x="7" y="17" width="1" height="1" fill="#000000" />
<rect x="0" y="18" width="1" height="1" fill="#000000" />
<rect x="1" y="18" width="1" height="1" fill="#6D6D6D" />
<rect x="2" y="18" width="1" height="1" fill="#565656" />
<rect x="3" y="18" width="1" height="1" fill="#565656" />
<rect x="4" y="18" width="1" height="1" fill="#585858" />
<rect x="5" y="18" width="1" height="1" fill="#565656" />
<rect x="6" y="18" width="1" height="1" fill="#525252" />
<rect x="7" y="18" width="1" height="1" fill="#000000" />
<rect x="0" y="19" width="1" height="1" fill="#000000" />
<rect x="1" y="19" width="1" height="1" fill="#000000" />
<rect x="2" y="19" width="1" height="1" fill="#000000" />
<rect x="3" y="19" width="1" height="1" fill="#000000" />
<rect x="4" y="19" width="1" height="1" fill="#000000" />
<rect x="5" y="19" width="1" height="1" fill="#000000" />
<rect x="6" y="19" width="1" height="1" fill="#000000" />
<rect x="7" y="19" width="1" height="1" fill="#000000" />
</svg>